# xmcd
#
# Track frame offsets:
#   150
#   13718
#   26962
#   45254
#   66030
#   84945
#   105016
#   123325
#   148159
#   164129
#   180091
#   195677
#   215450
#   235249
#
# Disc length: 3346 seconds
#
# Revision: 0
# Processed by: cddbd v1.5.1PL0 Copyright (c) Steve Scherf et al.
# Submitted via: uFREEDB ActiveX Control 1.5
#
DISCID=b30d100e
DTITLE=Rick e Renner - Grandes Sucessos
DYEAR=1900
DGENRE=Country
TTITLE0=Que nem chiclete
TTITLE1=To querendo de novo
TTITLE2=De mal com você
TTITLE3=Instante mágico
TTITLE4=Cara de pau
TTITLE5=Como esquecer tanto amor
TTITLE6=Seguir em frente
TTITLE7=Da terra ao céu
TTITLE8=Remelexo
TTITLE9=Pra ficar dez
TTITLE10=Ele é demais
TTITLE11=Cara metade
TTITLE12=Diaga que ainda me ama
TTITLE13=Enrosca enrrosca
EXTD=
EXTT0=
EXTT1=
EXTT2=
EXTT3=
EXTT4=
EXTT5=
EXTT6=
EXTT7=
EXTT8=
EXTT9=
EXTT10=
EXTT11=
EXTT12=
EXTT13=
PLAYORDER=
